<svg xmlns="http://www.w3.org/2000/svg" width="1024" height="1024" viewBox="0 0 1024 1024">
  <defs>
    <linearGradient id="bg" x1="0%" y1="0%" x2="100%" y2="100%">
      <stop offset="0%" style="stop-color:#3B82F6"/>
      <stop offset="100%" style="stop-color:#8B5CF6"/>
    </linearGradient>
    <linearGradient id="cell-highlight" x1="0%" y1="0%" x2="100%" y2="100%">
      <stop offset="0%" style="stop-color:#FBBF24"/>
      <stop offset="100%" style="stop-color:#F59E0B"/>
    </linearGradient>
  </defs>

  <!-- 圆角背景 -->
  <rect width="1024" height="1024" rx="220" fill="url(#bg)"/>

  <!-- 3x3 网格 (居中，每格 180px，间距 20px) -->
  <!-- 网格起始 x=192, y=192, 总宽 640 -->

  <!-- Row 1 -->
  <rect x="192" y="192" width="180" height="180" rx="24" fill="white" opacity="0.95"/>
  <rect x="392" y="192" width="180" height="180" rx="24" fill="white" opacity="0.95"/>
  <rect x="592" y="192" width="180" height="180" rx="24" fill="url(#cell-highlight)"/>

  <!-- Row 2 -->
  <rect x="192" y="392" width="180" height="180" rx="24" fill="white" opacity="0.95"/>
  <rect x="392" y="392" width="180" height="180" rx="24" fill="white" opacity="0.15"/>
  <rect x="592" y="392" width="180" height="180" rx="24" fill="white" opacity="0.95"/>

  <!-- Row 3 -->
  <rect x="192" y="592" width="180" height="180" rx="24" fill="url(#cell-highlight)"/>
  <rect x="392" y="592" width="180" height="180" rx="24" fill="white" opacity="0.95"/>
  <rect x="592" y="592" width="180" height="180" rx="24" fill="white" opacity="0.95"/>

  <!-- 数字 -->
  <text x="282" y="310" font-family="Inter, SF Pro Rounded, -apple-system, sans-serif" font-size="100" font-weight="700" fill="#1E293B" text-anchor="middle">9</text>
  <text x="482" y="310" font-family="Inter, SF Pro Rounded, -apple-system, sans-serif" font-size="100" font-weight="700" fill="#1E293B" text-anchor="middle">5</text>
  <text x="682" y="310" font-family="Inter, SF Pro Rounded, -apple-system, sans-serif" font-size="100" font-weight="700" fill="#FFFFFF" text-anchor="middle">3</text>

  <text x="282" y="510" font-family="Inter, SF Pro Rounded, -apple-system, sans-serif" font-size="100" font-weight="700" fill="#1E293B" text-anchor="middle">1</text>
  <text x="482" y="510" font-family="Inter, SF Pro Rounded, -apple-system, sans-serif" font-size="100" font-weight="700" fill="white" opacity="0.6" text-anchor="middle">?</text>
  <text x="682" y="510" font-family="Inter, SF Pro Rounded, -apple-system, sans-serif" font-size="100" font-weight="700" fill="#1E293B" text-anchor="middle">7</text>

  <text x="282" y="710" font-family="Inter, SF Pro Rounded, -apple-system, sans-serif" font-size="100" font-weight="700" fill="#FFFFFF" text-anchor="middle">4</text>
  <text x="482" y="710" font-family="Inter, SF Pro Rounded, -apple-system, sans-serif" font-size="100" font-weight="700" fill="#1E293B" text-anchor="middle">8</text>
  <text x="682" y="710" font-family="Inter, SF Pro Rounded, -apple-system, sans-serif" font-size="100" font-weight="700" fill="#1E293B" text-anchor="middle">6</text>
</svg>
